<?xml version="1.0" standalone="no"?> <!DOCTYPE svg PUBLIC "-//W3C//DTD SVG 1.0//EN" "http://www.w3.org/TR/2001/REC-SVG-20010904/DTD/svg10.dtd" > <svg xmlns="http://www.w3.org/2000/svg" width="100%" height="100%">
<defs >
<font id="zurmogamificationsymblyregular-regular" horiz-adv-x="600" ><font-face
    font-family="Zurmo Gamification Symbly Regular"
    units-per-em="1000"
    panose-1="0 0 5 0 0 0 0 0 0 0"
    ascent="1031"
    descent="-200"
    alphabetic="0" />
<missing-glyph d="M33 0V666H366V0H33ZM66 33H333V633H66V33Z" />
<glyph unicode="!" glyph-name="exclam" d="M412 482L444 463L465 411L282 93H281L134 0L142 173L325 493L381 500L412 482ZM198 68H200L268 114L257 132H212L187 173H166L159 90L198 68Z" />
<glyph unicode="%" glyph-name="percent" d="M83 50L160 127Q108 195 113 282T181 432Q248 500 344 500T509 432T577 268T509 104Q447 42 360 37T204 83L127 6Q112 -8 98 6L83 21Q77 27 77 35T83 50ZM154 189T210 133T345 77T480 133T536 268T480 403T345 459T210
403T154 268ZM235 352H465Q472 352 477 347T482 335V199Q482 192 477 187T465 182H235Q228 182 223 187T218 199V335Q218 342 223 347T235 352ZM321 210H338V333H232V210H248V212V214Q248 216 249 218Q249 227 253 234T265 242H276Q275 242 275 245Q257 252 257
272Q257 284 265 292T284 300T303 292T311 272Q311 252 293 245L292 242H304Q311 242 316 232T321 213V212V210ZM350 298H463V333H350V298ZM388 275H350V256H388V275ZM407 256H463V275H407V256ZM350 208H463V231H350V208Z" />
<glyph unicode="+" glyph-name="plus" d="M45 50L122 127Q70 195 75 282T143 432Q210 500 306 500T471 432T539 268T471 104Q409 42 322 37T166 83L89 6Q74 -8 60 6L45 21Q39 27 39 35T45 50ZM116 189T172 133T307 77T442 133T498 268T442 403T307 459T172 403T116
268ZM306 392Q341 392 363 371T386 319Q386 292 364 266Q360 242 345 225T306 208Q284 208 268 225T248 266Q228 290 228 319Q228 350 250 371T306 392ZM273 289L293 248Q270 248 270 238T306 228Q341 228 341 238T321 248L341 289Q341 291 336 291T331 289L311
251H306H301L281 289Q281 291 276 291L273 289ZM266 173V200Q283 186 306 186Q332 186 346 200V173Q346 168 339 162T323 155V147Q323 140 313 140H298Q291 140 291 147V155Q280 156 273 161T266 173ZM273 186V176L284 171Q294 166 306 166T328 171L338 176V186L328
181Q317 176 306 176Q297 176 285 181L273 186Z" />
<glyph unicode="," glyph-name="comma" d="M446 279Q462 195 450 135V134Q439 76 396 38T297 0Q233 0 188 48T143 164Q143 213 166 251Q167 252 169 256T174 262L180 275Q185 288 175 311Q156 359 141 378Q151 383 184 364T221 320Q278 405 247 450Q232 472 227
484T222 497L224 498L248 490Q271 482 296 463T326 419L333 359L340 370Q346 382 348 399Q349 411 348 422T346 436T347 442Q349 443 361 414T388 350T415 294T429 283Q430 298 425 310T421 323Q425 327 433 317T446 279ZM314 60Q337 60 354 74T371 110Q371 128
346 173T314 218Q313 218 311 193T296 141T256 110Q236 107 263 84T314 60Z" />
<glyph unicode="-" glyph-name="hyphen" d="M23 484H577Q587 484 593 478T600 461V212Q578 231 552 231H536V246Q536 275 515 296T465 317T415 296T394 246V231H377Q348 231 327 210T306 159Q306 135 321 115H23Q13 115 7 122T0 138V461Q0 471 6 477T23 484ZM69
300H138V369H69V300ZM513 154H575Q585 154 592 147T600 128Q600 118 593 111T575 103H513V40Q513 30 506 23T488 15T471 22T463 40V103H400Q390 103 383 110T375 128Q375 139 382 146T400 154H463V215Q463 226 470 233T488 240T505 233T513 215V154Z" />
<glyph unicode="." glyph-name="period" d="M37 366H46L96 358Q145 351 166 337Q190 322 197 309T201 276Q199 258 200 255T207 246L211 242Q217 255 222 259Q235 270 239 277T251 320Q261 361 279 388T345 447Q394 481 488 493L550 500H564L560 488L547 456Q534
424 507 381T452 314Q397 271 348 263Q332 261 299 261Q264 262 252 261Q243 260 229 249Q220 239 208 177L197 115Q197 113 191 113L183 115L190 160Q197 204 207 231Q204 239 201 242Q190 248 157 248Q106 247 68 275Q55 286 47 307T38 344L36 360L37 366ZM257
278L326 285L397 334L446 420L348 395L282 329L257 278ZM157 265L188 256L176 287L136 318L62 335L79 307L108 280L157 265ZM206 111V114Q207 119 209 131Q220 131 223 128Q228 123 237 120T252 120Q257 126 280 116Q282 115 291 109T308 106Q317 110 325 106T334
97Q336 85 348 87Q361 89 366 82Q372 68 383 65Q392 63 391 57Q391 56 391 53Q390 43 398 43Q424 43 428 40Q436 34 425 27Q412 21 405 23Q402 24 393 18Q379 7 374 12Q370 17 361 17T348 14Q330 2 322 6Q301 20 293 14Q293 10 283 13T270 16Q264 17 256 11T240
5Q232 5 219 10T205 14Q205 14 205 11Q207 3 201 4Q185 9 168 3Q164 2 146 11Q139 14 108 8Q102 7 95 7T83 10T80 14Q80 15 75 20T70 28Q70 30 56 32T47 41Q52 47 53 51T53 60T52 66Q52 69 69 80T92 100Q108 125 121 122Q132 117 145 128Q157 137 167 128Q172 124
174 124Q174 122 174 119L173 116V112L176 109Q179 103 191 103Q201 103 204 109L206 111Z" />
<glyph unicode="0" glyph-name="zero" d="M43 486H557Q573 486 586 473T600 444V58Q600 42 587 29T557 15H43Q26 15 13 28T0 58V444Q0 460 13 473T43 486ZM171 422H64V336H171V422ZM407 422H193V336H407V422ZM450 336H536V422H450V336ZM64 79H300V294H64V79ZM343
251H536V294H343V251ZM343 186H471V229H343V186ZM514 101V144H343V101H514Z" />
<glyph unicode="1" glyph-name="one" d="M232 500T300 500T413 458T458 356Q458 298 414 250Q408 203 377 168T300 133T224 168T186 250Q142 298 142 356Q142 416 187 458ZM234 293L272 216Q229 211 229 197Q229 188 249 183T300 177Q370 177 370 197Q370 211
328 216L367 293Q369 297 361 299Q352 301 349 296L310 218H300H289L250 296Q248 301 240 299T234 293ZM221 64V120Q254 92 300 92Q345 92 379 120V64Q379 38 332 28V15Q332 0 315 0H285Q278 0 273 4T268 15V28Q221 38 221 64ZM365 69V91L343 80Q321 70 300 70T258
80L236 91V69L256 59Q276 49 300 49Q325 49 345 59L365 69Z" />
<glyph unicode="2" glyph-name="two" d="M509 211H428Q428 156 391 119T299 81Q246 81 209 118T171 209Q171 263 207 300T295 338H300V275Q300 267 304 264T315 264Q322 267 386 316T454 368Q461 372 461 379T453 390Q445 395 383 444T317 495Q310 499 305 495T300
483V418H295Q209 418 150 357T90 209T151 61T299 0Q388 0 448 58T509 211Z" />
<glyph unicode="3" glyph-name="three" d="M566 456L587 435V389L422 225V0H13V386L127 500H422V412L493 483H540L566 456ZM59 45H377V179H376L240 136L283 272L377 366V455H149L59 364V45ZM127 381H331V359H127V381ZM127 315H240V292H127V315ZM314 178L370 198L365
214L329 225L318 261L302 266L282 210L314 178ZM127 250H240V227H127V250ZM127 182H218V159H127V182ZM331 91H127V114H331V91Z" />
<glyph unicode="4" glyph-name="four" d="M96 500H504Q523 500 536 487T550 454V46Q550 27 537 14T504 0H96Q77 0 64 13T50 46V454Q50 473 63 486T96 500ZM113 63H488V438H113V63ZM239 159L224 175Q224 176 223 177L173 231Q164 242 165 255Q165 267 175 277L191
291Q200 300 213 300T237 289L266 257L388 371Q398 379 410 379Q425 379 434 369L448 353Q457 343 457 330T446 307L305 176L304 174Q302 172 301 171L285 157Q275 149 263 149H261Q249 149 239 159Z" />
<glyph unicode="5" glyph-name="five" d="M302 498L303 500L529 205H403V198V0H197V198V205H74L301 500L302 498Z" />
<glyph unicode="6" glyph-name="six" d="M303 5L302 1L74 294H198V308V500H405V308V294H532L304 0L303 5Z" />
<glyph unicode="7" glyph-name="seven" d="M567 250L571 249L252 0V140H236H27V365H236H252V500L573 251L567 250Z" />
<glyph unicode="8" glyph-name="eight" d="M34 250L29 251L345 500V365H367H571V140H367H345V0L27 249L34 250Z" />
<glyph unicode="9" glyph-name="nine" d="M320 582V517H298H280V582Q280 588 285 594T298 600Q307 600 313 594T320 582ZM390 500L420 551Q431 569 446 559Q466 552 456 533L426 477Q420 481 409 488T390 500ZM176 551L210 500Q205 496 192 489T174 477L144 533Q134
550 149 559Q165 568 176 551ZM107 388L46 424Q31 432 41 451Q50 466 67 456L125 424Q117 417 107 388ZM474 423L533 456Q547 464 559 451Q563 444 560 436T551 424L492 387Q486 404 474 423ZM298 451Q361 451 401 413T442 320Q442 274 402 226Q394 182 367 152T298
122Q259 122 230 153T194 226Q158 267 158 320Q158 375 197 413T298 451ZM88 280H18Q12 280 6 286T0 302Q0 309 6 314T18 320H79Q79 303 88 280ZM509 320H577Q586 320 593 315T600 302Q600 292 594 286T577 280H504Q509 293 509 320ZM239 266L275 194Q259 194 247
189T234 176T253 164T298 158T342 163T361 176T351 188T325 194L361 266L358 268Q354 271 352 271Q343 271 343 266L307 198H298H289L253 266Q253 271 244 271Q240 270 239 266ZM226 59V108Q258 82 298 82Q344 82 370 108V59Q370 49 358 40T329 28V13Q329 0 311
0H284Q271 0 271 13V28Q251 30 239 39T226 59ZM239 82V64L258 55Q276 46 298 46T338 55L356 64V82L336 73Q317 64 298 64Q281 64 260 73L239 82Z" />
<glyph unicode=":" glyph-name="colon" d="M481 335L441 302L472 260L422 246L433 195L382 203L380 194L460 32L414 38L390 -3L311 156L297 137L287 153L209 -3L186 38L139 32L217 190L215 205L163 199L176 250L126 265L159 306L120 341L166 365L144 412L195 416V468L244
449L265 497L302 461L341 496L360 448L409 464L407 412L459 407L436 361L481 335ZM238 348T237 345T253 329T270 314Q271 312 266 291T262 268T281 278T301 291T320 279T340 269T337 292T331 315Q332 317 348 330T364 347T342 350T319 352T310 373T300 394T290
373T281 351T259 349Z" />
<glyph unicode=";" glyph-name="semicolon" d="M184 0V135Q193 148 232 164L272 181L270 210Q268 239 268 256Q246 266 224 285Q191 280 166 286Q131 294 112 328T99 395Q108 435 153 440L151 479L166 484Q181 490 218 495T300 500T382 495T434 484L449 479L447
440Q492 435 501 395Q508 362 489 328T434 286Q409 280 375 285Q356 268 331 256L326 181L368 162Q410 143 418 134L416 133V0H184ZM172 314Q186 311 201 312Q169 354 158 412Q135 409 131 388Q126 367 138 343T172 314ZM442 412Q431 354 399 312Q414 311 428 314Q449
319 461 343T469 388Q463 409 442 412ZM223 39H378V78H223V39Z" />
<glyph unicode="=" glyph-name="equal" d="M83 50L160 127Q108 195 113 282T181 432Q248 500 344 500T509 432T577 268T509 104Q447 42 360 37T204 83L127 6Q112 -8 98 6L83 21Q77 27 77 35T83 50ZM154 189T210 133T345 77T480 133T536 268T480 403T345 459T210
403T154 268ZM331 374L359 347H458V174H240V339L267 374H331Z" />
<glyph unicode="?" glyph-name="question" d="M187 477H573Q584 477 592 469T600 448V222Q600 210 592 202T573 193H187Q176 193 168 201T160 222V448Q160 460 168 468T187 477ZM330 240H360V445H183V240H210V243V246Q210 250 211 253Q211 267 219 279T238 292H256V299Q225
311 225 343Q225 362 238 376T270 391Q289 391 302 377T315 343Q315 311 284 299V292H304Q316 292 323 277T330 246V245V243V240ZM380 387H568V445H380V387ZM443 349H380V316H443V349ZM475 316H568V349H475V316ZM380 237H568V275H380V237ZM170 86H137Q137 64 122
49T84 34Q63 34 48 48T33 85T47 122T83 137H86V113Q86 104 91 107Q142 147 148 150Q156 154 148 159Q144 161 119 180T92 201Q86 206 86 197V170H83Q48 170 24 145T0 85T24 25T84 0Q121 0 145 24T170 86Z" />
<glyph unicode="A" glyph-name="A" d="M505 491V361L595 306L550 273V0H281V133Q281 155 265 170T226 186Q203 186 187 171T170 133V0H58V273L5 306L298 500L416 422V491H505Z" />
<glyph unicode="B" glyph-name="B" d="M116 443H552Q572 443 586 429T600 395V105Q600 86 586 72T552 57H116Q97 57 83 71T69 105V194L0 244L69 293V395Q69 415 83 429T116 443Z" />
<glyph unicode="C" glyph-name="C" d="M49 360H171Q179 360 179 370V491Q179 500 171 500H49Q40 500 40 491V370Q40 360 49 360ZM229 360H551Q560 360 560 370V491Q560 500 551 500H229Q220 500 220 491V370Q220 360 229 360ZM49 180H171Q179 180 179 189V311Q179
320 171 320H49Q40 320 40 311V189Q40 180 49 180ZM229 180H551Q560 180 560 189V311Q560 320 551 320H229Q220 320 220 311V189Q220 180 229 180ZM49 0H171Q179 0 179 9V131Q179 140 171 140H49Q40 140 40 131V9Q40 0 49 0ZM229 0H551Q560 0 560 9V131Q560 140
551 140H229Q220 140 220 131V9Q220 0 229 0Z" />
<glyph unicode="D" glyph-name="D" d="M371 500H49Q40 500 40 491V369Q40 360 49 360H371Q380 360 380 369V491Q380 500 371 500ZM551 500H429Q421 500 421 491V369Q421 360 429 360H551Q560 360 560 369V491Q560 500 551 500ZM371 320H49Q40 320 40 311V189Q40
180 49 180H371Q380 180 380 189V311Q380 320 371 320ZM551 320H429Q421 320 421 311V189Q421 180 429 180H551Q560 180 560 189V311Q560 320 551 320ZM371 140H49Q40 140 40 130V9Q40 0 49 0H371Q380 0 380 9V130Q380 140 371 140ZM551 140H429Q421 140 421 130V9Q421
0 429 0H551Q560 0 560 9V130Q560 140 551 140Z" />
<glyph unicode="E" glyph-name="E" d="M222 291H460Q473 291 483 279T494 252V22Q494 0 460 0H142Q106 0 106 22V252Q106 267 117 279T142 291H144V346Q144 410 188 455T299 500Q364 500 408 456T455 349H376V346Q376 381 355 405T299 429T243 405T222 346V291ZM280
200V140Q280 137 273 128T265 112Q265 98 275 88T301 78Q315 78 324 88T334 112Q334 118 334 122T332 132T319 140V200Q319 219 299 219Q280 219 280 200Z" />
<glyph unicode="F" glyph-name="F" d="M455 291H458Q473 291 484 279T495 252V21Q495 0 458 0H140Q106 0 106 21V252Q106 266 116 278T140 291H144V346Q144 410 189 455T300 500T410 455T455 346V291ZM376 291V346Q376 381 355 404T299 428T243 405T222 346V291H376ZM281
199V139Q271 136 268 132T264 122T265 111Q265 97 274 88T300 78Q314 78 323 87T333 111Q335 119 333 127T319 139V199Q319 218 300 218T281 199Z" />
<glyph unicode="G" glyph-name="G" d="M190 432V98V97Q191 63 218 32T301 0T382 31T409 98V345Q409 359 395 359T381 345V98Q381 92 379 84T370 61T345 37T301 27T257 36T231 60T221 82T217 98V431Q224 472 271 472T325 431V152Q325 132 315 122Q308 115 296 115Q283
115 276 124T267 141T265 153V346Q265 351 261 355T251 360Q246 360 242 356T237 346V153Q238 130 252 109T296 87Q319 87 335 103Q353 121 353 153V432V433Q351 456 331 478T271 500Q232 500 212 478T190 433V432Z" />
<glyph unicode="H" glyph-name="H" d="M95 373L281 52V51Q292 32 312 19T367 1T441 20Q478 41 492 73T504 129T490 174L353 411Q345 425 333 416Q318 409 327 396L463 158Q466 152 469 143T473 116T463 80T425 46Q356 7 306 67L122 388Q119 393 118 402T123 428T150
456Q192 481 225 448L381 179Q390 160 387 145Q384 134 372 127Q360 118 348 124T330 136T321 147L215 333Q205 345 192 338Q188 336 187 329T187 316L295 132Q303 119 315 109T347 93T388 100Q410 114 416 137Q422 163 406 196L251 463L250 464Q242 476 227 485T187
497T135 483Q115 472 103 457T89 426T87 397T94 374L95 373Z" />
<glyph unicode="I" glyph-name="I" d="M407 295L513 239Q527 253 548 253T584 238T600 202Q600 180 585 165T548 150T512 165T497 202Q497 208 498 210L392 268Q377 253 355 253Q346 253 338 256L274 171Q283 158 283 142Q283 121 268 106T232 90Q210 90 195 105T180
142Q180 157 188 170L72 309Q64 305 52 305Q31 305 16 320T0 358Q0 378 15 393T52 409T88 394T103 358Q103 344 95 330L213 190Q222 193 232 193T249 190L313 276Q304 288 304 305Q304 327 318 342T355 358T392 343T408 305Q408 299 407 295Z" />
<glyph unicode="J" glyph-name="J" d="M244 204V249Q244 259 235 270L226 282Q178 310 178 379Q178 429 213 464T299 500Q350 500 386 465T422 379Q422 309 372 277Q354 259 354 251V31L350 24Q345 16 337 8T322 0Q312 0 303 11T290 31Q303 40 303 45Q303 49 293
59T282 71V87Q282 89 289 96T297 106Q297 107 290 113T282 123V137Q282 140 287 144T292 151Q292 152 287 157T282 166V187L244 204ZM324 465T299 465T254 453T233 431Q233 422 252 415T299 408T345 415T365 431Q365 441 345 453Z" />
<glyph unicode="K" glyph-name="K" d="M364 417L381 261Q397 258 411 243T430 217Q435 202 435 191T398 173T301 165Q240 165 203 172T165 191Q165 199 171 217Q174 228 189 243T220 261H219L236 417Q221 420 206 430T185 449Q176 465 176 473Q176 494 301 498V499Q347
499 386 492T426 474Q426 471 415 449Q410 441 395 431T364 417ZM299 153H301Q305 153 314 152T328 151L301 0L273 151Q278 151 286 152T299 153Z" />
<glyph unicode="L" glyph-name="L" d="M152 234H151Q143 256 138 269T130 295T127 324Q127 397 177 448T300 500T422 449T473 326Q473 298 449 234H448Q446 231 443 228T437 221L321 12L314 6Q308 0 300 0T286 6L279 12L163 220Q161 222 157 227T152 234ZM328
393T300 393T253 374T233 327Q233 299 252 280T300 260T347 279T367 327Q367 354 348 373Z" />
<glyph unicode="M" glyph-name="M" d="M229 177H208Q129 193 114 230Q94 217 72 217Q42 217 21 237T0 286Q0 314 21 334T72 354Q84 354 97 349Q105 376 126 392T173 409Q184 409 189 408Q194 440 217 461T272 483Q324 483 347 435Q351 436 359 436Q405 436 436
405Q456 425 483 425Q511 425 530 406T549 360Q549 353 548 349Q572 338 586 317T600 270Q600 233 573 208T508 182Q489 182 470 190Q460 182 450 176H426V300H229V177ZM325 16V15L231 137H276V250H377V137H420L326 15L325 16Z" />
<glyph unicode="N" glyph-name="N" d="M306 319L210 194Q131 209 113 247Q95 234 72 234Q42 234 21 254T0 302Q0 331 21 351T72 371Q88 371 97 366Q104 393 125 409T174 426Q176 426 181 426T189 425Q194 457 217 478T273 500Q324 500 347 452H359Q404 452 436
422Q454 442 483 442Q510 442 529 423T549 377Q549 370 548 366Q571 355 585 334T600 287Q600 251 573 225T509 198Q492 198 470 207Q463 200 443 191L357 303L345 318L326 344L325 342V344L306 319ZM326 246V247L420 124H369V122V0H283V122V124H231L325 247L326
246Z" />
<glyph unicode="O" glyph-name="O" d="M150 493H452Q511 493 555 451T600 350V243Q600 186 556 147T452 107H250L107 6V107Q70 120 35 159T0 243V350Q0 408 45 450T150 493Z" />
<glyph unicode="P" glyph-name="P" d="M254 500L326 431H572V0H28V413L95 500H254Z" />
<glyph unicode="Q" glyph-name="Q" d="M493 288H525Q533 288 541 279T550 264V215Q550 209 544 205T529 200H491Q490 195 488 187T485 177L512 161Q529 152 520 139L496 97Q489 83 473 93L443 110Q440 107 435 102T426 94L442 66Q450 51 438 42L396 18Q383 11
374 26L357 58Q338 55 338 54V19Q338 12 331 6T318 0H269Q261 0 261 19V59Q254 60 238 65L216 32Q206 17 193 24L151 48Q138 56 147 72L168 109Q164 113 156 123L120 102Q105 93 96 107L72 148Q65 162 80 171L119 194Q119 197 118 202T115 211H71Q63 211 57 215T50
227V275Q50 288 73 288H119Q119 292 124 306L86 329Q70 338 78 351L102 393Q109 407 126 398L165 375Q167 377 171 381T178 387L157 424Q147 439 161 448L202 472Q216 479 224 464L245 426L261 431V471Q261 480 267 490T281 500H329Q338 500 338 471V431Q345 431
361 426L383 458Q392 475 406 466L447 442Q461 435 452 418L433 386L448 371L478 388Q494 397 502 384L526 343Q533 329 518 321L488 306L493 288Z" />
<glyph unicode="R" glyph-name="R" d="M90 386L203 500H499V0H90V386ZM112 363H227V476L112 363Z" />
<glyph unicode="S" glyph-name="S" d="M106 307H494Q517 307 533 290T550 249T534 209T494 192H106Q83 192 67 209T50 249T66 289T106 307Z" />
<glyph unicode="T" glyph-name="T" d="M405 475L379 373L515 53V50Q515 30 452 15T300 0T149 15T85 50Q85 52 87 56L219 373L193 475Q193 485 224 492T299 500T374 493T405 475ZM214 475Q245 464 299 464Q352 464 383 475Q355 485 299 485Q242 485 214 475ZM242
372L108 52Q123 41 174 32T299 22Q372 22 423 32T489 52L355 372L374 450Q348 443 299 443Q249 443 223 450L242 372ZM149 70L217 241Q257 234 265 227Q296 202 314 208Q332 215 345 206Q366 196 373 206Q375 209 388 220L449 70Q397 52 299 52T149 70Z" />
<glyph unicode="U" glyph-name="U" d="M152 481V422Q152 414 147 409T133 403T120 408T114 422V481Q114 489 119 494T133 500T146 495T152 481ZM488 481V422Q488 414 482 409T468 403T455 408T449 422V481Q449 489 454 494T468 500T482 495T488 481ZM511 410V434Q537
432 554 413T572 366V68Q572 40 553 20T505 0H96Q68 0 48 20T28 68V366Q28 393 46 412T90 434V410Q90 392 103 379T134 366Q153 366 166 379T179 410V434H421V410Q421 392 434 379T466 366T498 379T511 410ZM96 41H505Q516 41 524 49T532 68V330H69V68Q69 57 77
49T96 41ZM323 279H351L283 100H256L323 279ZM219 228H185Q185 232 182 237Q176 245 166 245Q150 245 142 227Q138 214 137 197Q142 204 152 207Q159 211 170 211Q193 211 208 195Q222 179 222 156T208 114Q192 95 164 95Q131 95 116 122Q104 145 104 177Q104 193
106 209Q109 229 117 245Q125 258 136 265T165 272Q188 272 203 260Q216 249 219 228ZM378 152H411Q411 142 414 135Q422 123 437 123Q447 123 454 130Q461 136 461 149Q461 166 448 172Q439 175 423 175V199Q440 199 446 202Q457 208 457 222Q457 232 451 238Q447
244 435 244Q424 244 418 237Q412 229 413 217H381Q383 233 386 241Q389 251 399 259Q405 265 414 268Q422 272 436 272Q460 272 476 259Q491 247 491 225Q491 209 482 200Q476 192 470 191Q475 191 483 183Q496 171 496 150Q496 128 481 112T437 96Q401 96 386
119Q379 134 378 152ZM148 179Q138 172 138 154Q138 139 145 132Q152 123 164 123Q174 123 182 131Q188 140 188 153Q188 169 181 176Q173 184 163 184Q155 184 148 179Z" />
<glyph unicode="V" glyph-name="V" d="M311 0H425V500H311V0ZM175 0H289V363H175V0ZM447 0H560V295H447V0ZM39 0H152V159H39V0Z" />
<glyph unicode="W" glyph-name="W" d="M230 327L268 367Q280 378 279 395T265 425L210 482Q196 495 179 495T151 484L111 445Q100 434 100 417T114 386L170 330Q183 317 200 317T230 327ZM397 147L502 42L474 36Q445 29 403 29T300 56T185 135Q132 188 109 246T89
343T102 408L112 433L217 327L212 322Q206 317 205 306T218 271T264 214Q305 172 338 156T384 143L397 147ZM514 42L553 82Q565 93 565 110T551 141L495 196Q482 209 465 209T436 199L396 160Q385 148 386 131T399 101L454 44Q468 32 485 32T514 42Z" />
<glyph unicode="X" glyph-name="X" d="M301 275L119 125Q91 156 80 188T69 268Q69 364 137 432T301 500T464 432T532 268Q532 180 474 115T330 39L301 275ZM120 74L271 201L293 1Q194 -1 125 68Q120 72 120 74ZM330 37H301Q310 37 330 39V37Z" />
<glyph unicode="Y" glyph-name="Y" d="M357 313H494Q517 313 533 297T550 257T534 217T494 200H357V56Q357 33 341 17T301 0T262 16T245 56V200H106Q83 200 67 217T50 257T66 296T106 313H245V444Q245 467 261 483T301 500T340 484T357 444V313Z" />
<glyph unicode="Z" glyph-name="Z" d="M299 351L421 472Q441 493 471 493T521 471Q541 451 541 422T522 372L400 250L522 128Q543 107 543 78T522 28Q501 8 472 8T422 27L299 150L177 28Q156 8 127 8T78 29Q58 49 58 78T77 128L199 250L78 371Q57 391 57 421T79
471Q99 491 128 491T178 472L299 351Z" />
<glyph unicode="[" glyph-name="bracketleft" d="M320 582V517H298H280V582Q280 588 285 594T298 600Q307 600 313 594T320 582ZM390 500L420 551Q431 569 446 559Q466 552 456 533L426 477Q420 481 409 488T390 500ZM176 551L210 500Q205 496 192 489T174 477L144
533Q134 550 149 559Q165 568 176 551ZM107 388L46 424Q31 432 41 451Q50 466 67 456L125 424Q117 417 107 388ZM474 423L533 456Q547 464 559 451Q563 444 560 436T551 424L492 387Q486 404 474 423ZM298 451Q361 451 401 413T442 320Q442 274 402 226Q394 182
367 152T298 122Q259 122 230 153T194 226Q158 267 158 320Q158 375 197 413T298 451ZM88 280H18Q12 280 6 286T0 302Q0 309 6 314T18 320H79Q79 303 88 280ZM509 320H577Q586 320 593 315T600 302Q600 292 594 286T577 280H504Q509 293 509 320ZM239 266L275 194Q259
194 247 189T234 176T253 164T298 158T342 163T361 176T351 188T325 194L361 266L358 268Q354 271 352 271Q343 271 343 266L307 198H298H289L253 266Q253 271 244 271Q240 270 239 266ZM170 86H137Q137 64 122 49T84 34Q63 34 48 48T33 85T47 122T83 137H86V113Q86
104 91 107Q142 147 148 150Q156 154 148 159Q144 161 119 180T92 201Q86 206 86 197V170H83Q48 170 24 145T0 85T24 25T84 0Q121 0 145 24T170 86ZM226 59V108Q258 82 298 82Q344 82 370 108V59Q370 49 358 40T329 28V13Q329 0 311 0H284Q271 0 271 13V28Q251
30 239 39T226 59ZM239 82V64L258 55Q276 46 298 46T338 55L356 64V82L336 73Q317 64 298 64Q281 64 260 73L239 82Z" />
<glyph unicode="]" glyph-name="bracketright" d="M364 500L419 447H599V132H199V436L248 500H364ZM170 86H137Q137 64 122 49T84 34Q63 34 48 48T33 85T47 122T83 137H86V113Q86 104 91 107Q142 147 148 150Q156 154 148 159Q144 161 119 180T92 201Q86 206 86
197V170H83Q48 170 24 145T0 85T24 25T84 0Q121 0 145 24T170 86Z" />
<glyph unicode="a" glyph-name="a" d="M121 66L150 35Q174 15 200 15Q221 15 239 35L278 66L290 74L569 336Q591 356 593 383T580 426L549 465Q542 468 533 473T517 482T501 485Q491 485 484 483T466 474T450 465L212 235L150 293Q134 311 125 317T102 324Q87
324 76 319T51 305L20 274Q0 254 0 227Q0 211 20 184L121 74V66Z" />
<glyph unicode="b" glyph-name="b" d="M489 635H600Q634 635 659 609T684 547V518Q684 483 660 459T600 435H556L485 376V435Q449 435 433 459T416 518V547Q416 584 436 609T489 635ZM256 229H209Q179 229 151 195T111 122Q106 114 106 105Q105 101 105 95Q105
46 158 23T296 0T433 23T486 95V101Q486 138 454 183T387 229H333Q334 229 334 247Q371 261 395 295T419 372Q419 425 383 462T296 500Q245 500 209 463T173 372Q173 330 195 297T254 249L256 229Z" />
<glyph unicode="c" glyph-name="c" d="M455 76V41Q455 40 455 39T456 37Q408 0 295 0Q105 0 105 95Q105 102 106 105Q106 113 110 123Q122 162 150 196T208 231H255Q255 237 253 249Q217 263 195 296T173 370Q173 424 209 462T295 500Q346 500 382 462T418 370Q418
328 395 295T334 248Q333 245 333 240T332 231H387Q419 231 451 188H421Q398 188 382 172T365 132T381 93T421 76H455ZM537 158H602Q612 158 620 150T628 132T620 114T602 106H537V41Q537 30 530 23T511 15T493 22T485 41V106H421Q410 106 403 113T395 132T402
150T421 158H485V223Q485 234 492 241T511 249T529 242T537 223V158Z" />
<glyph unicode="d" glyph-name="d" d="M452 188H421Q398 188 382 172T365 132T381 93T421 76H483Q462 0 295 0Q105 0 105 95Q105 102 106 105Q108 119 110 123Q122 162 150 196T208 231H255Q255 237 253 249Q217 263 195 296T173 370Q173 424 209 462T295 500Q346
500 382 462T418 370Q418 328 395 295T335 248Q333 238 333 231H387Q420 231 452 188ZM421 158H602Q612 158 620 150T628 132T620 114T602 106H421Q410 106 403 113T395 132T402 150T421 158Z" />
<glyph unicode="e" glyph-name="e" d="M255 232H208Q179 232 151 198T110 124Q106 112 106 105Q105 102 105 95Q105 0 295 0T485 95V102Q485 140 454 186T387 232H332Q333 232 333 239T334 248Q371 261 394 294T418 370Q418 424 382 462T295 500Q245 500 209 462T173
371Q173 329 195 296T253 249L255 232Z" />
<glyph unicode="f" glyph-name="f" d="M452 285H490Q515 285 537 252T559 193L558 191Q558 190 558 188L559 186Q559 149 521 124T427 98Q415 98 395 100Q385 58 335 29T219 0Q145 0 93 35T40 119V128Q42 138 44 144Q55 181 82 213T137 245H181L179 263Q146 276
125 307T103 378Q103 429 137 464T219 500Q266 500 300 464T334 378Q334 338 312 306T256 262L254 245H305Q306 245 310 246T318 247Q344 285 366 285H399L397 295Q372 305 357 327T341 377Q341 414 366 440T427 467T487 441T512 378Q512 349 496 326T454 294Q454
293 454 289T452 285Z" />
<glyph unicode="g" glyph-name="g" d="M63 26V332L66 338L72 350Q79 363 86 367L129 400Q172 433 224 466T296 500T367 466T463 398L506 364Q520 356 525 340Q528 337 528 332V26Q528 17 521 9T506 0H87Q78 0 71 8T63 26ZM148 296H138Q173 274 229 228T295 179Q304
181 362 228T454 296H444V380H148V296Z" />
<glyph unicode="h" glyph-name="h" d="M27 457H573Q584 457 592 450T600 431V70Q600 59 592 51T573 43H27Q16 43 8 51T0 70V431Q0 442 8 449T27 457ZM484 321H550V411H484V321ZM113 275H365V321H113V275ZM113 205H345V249H113V205ZM113 139H229V182H113V139Z" />
<glyph unicode="i" glyph-name="i" d="M198 500H399L553 351V150L399 0H198L47 150V351L198 500ZM299 201L360 140Q370 130 384 130T409 140T420 164T409 189L348 250L409 312Q420 322 420 336T409 361Q398 371 384 371T360 361L299 300L238 361Q228 371 213 371T188
361Q178 350 178 336T188 312L249 250L188 189Q178 179 178 165T188 140T213 130T238 140L299 201Z" />
<glyph unicode="j" glyph-name="j" d="M579 46Q587 30 579 15T552 0H51Q32 0 23 14T24 47L274 479Q283 495 301 495T328 479L579 46ZM314 144L315 153Q319 195 326 256Q332 312 332 318Q332 332 323 341T301 350Q286 350 279 341Q270 332 270 318Q270 308 276
255Q279 228 286 153V144H314ZM324 76Q333 85 333 98Q333 112 324 121Q314 131 301 131Q287 131 278 121Q268 111 268 98Q268 86 278 76Q287 66 301 66Q314 66 324 76Z" />
<glyph unicode="k" glyph-name="k" d="M74 84L211 226L214 229Q187 272 187 323Q187 396 239 448T364 500Q438 500 489 448T541 323T489 199T364 147Q318 147 279 169Q278 167 274 163L137 21Q124 8 107 6T79 14L67 26Q56 36 58 53T74 84ZM310 192T364 192T456
230T495 323Q495 378 457 416T364 454T272 416T233 323Q233 269 271 231ZM162 101L233 172L220 185L149 114L162 101Z" />
<glyph unicode="l" glyph-name="l" d="M94 500H505Q533 500 553 481T573 435V66Q573 39 553 20T505 0H94Q67 0 48 19T28 66V435Q28 462 47 481T94 500ZM163 95V170Q181 170 193 183T206 215L203 239L206 269Q206 287 194 299T163 313V410Q163 426 147 426T131
410V313H130Q111 313 99 300T86 266L88 241L86 214Q86 195 98 183T130 170H131V95Q131 79 147 79T163 95ZM315 95V262Q334 262 347 275T360 308L357 331L360 361Q360 379 347 392T315 405V410Q315 417 311 421T300 426Q293 426 288 422T283 410V405Q265 405 253
392T240 359L242 334L240 305Q240 288 252 275T283 262V95Q283 88 288 84T300 79Q306 79 310 83T315 95ZM468 109H470Q488 109 501 122T514 155L512 178L514 208Q514 227 501 240T470 253H468V410Q468 426 452 426T436 410V252Q418 251 406 238T394 206L396 181L393
153Q393 135 405 123T436 109V95Q436 79 452 79T468 95V109ZM283 383H315Q325 383 331 377T338 361L335 331L338 305Q338 297 332 291T315 284H283Q275 284 269 290T262 305L264 334L262 361Q262 370 268 376T283 383ZM130 291H162Q171 291 177 285T184 269L182
239L184 214Q184 205 178 199T162 192H130Q121 192 115 198T108 214L111 241L108 269Q108 278 114 284T130 291ZM438 230H470Q492 230 492 208L490 178L492 153Q492 144 486 138T470 131H438Q429 131 423 137T416 153L418 181L416 208Q416 218 422 224T438 230Z"
/>
<glyph unicode="m" glyph-name="m" d="M263 464V263Q263 248 273 238T299 227T324 237T335 263V464Q335 479 325 489T299 500T274 490T263 464ZM372 341V411Q430 388 471 333T512 211Q512 124 449 62T299 0Q211 0 149 62T87 211Q87 277 127 331T226 410V339Q196
318 174 284T152 211Q152 150 195 108T300 65T404 107T448 211Q448 250 426 285T372 341Z" />
<glyph unicode="n" glyph-name="n" d="M550 308V192H478Q474 180 467 167L519 115L438 35L386 87Q372 79 358 75V0H242V75Q228 79 214 87L161 35L81 115L133 167Q126 180 122 192H50V308H120Q128 330 133 340L81 392L161 472L214 420Q228 428 242 432V500H358V432Q372
428 386 420L438 472L519 392L467 340Q472 330 480 308H550ZM379 253Q379 286 356 309T300 332T245 309T221 253Q221 221 244 198T300 175T355 198T379 253Z" />
<glyph unicode="o" glyph-name="o" d="M196 500T300 500T477 427T550 250T477 73T300 0T123 73T50 250T123 427ZM215 45T300 45T445 105T505 250T445 395T300 455T155 395T95 250T155 105ZM262 346H338V403H262V346ZM338 308H262V95H338V308Z" />
<glyph unicode="p" glyph-name="p" d="M196 500T300 500T477 427T550 250T477 73T300 0T123 73T50 250T123 427ZM215 45T300 45T445 105T505 250T445 395T300 455T155 395T95 250T155 105ZM319 192V203Q348 239 362 249Q399 277 399 316Q399 345 375 368T298 392Q255
392 228 362T200 288H260Q260 345 303 345Q338 345 338 313Q338 289 311 269Q280 244 280 205V192H319ZM338 172H261V95H338V172Z" />
<glyph unicode="q" glyph-name="q" d="M467 381L460 372Q514 311 511 227T449 82Q388 20 300 20T150 82Q91 144 89 228T141 374L132 384L127 379Q121 373 117 376L96 394Q96 402 99 405L132 436Q137 444 143 438L161 420Q166 415 158 410L153 405L163 395Q212
439 282 445V454H277Q273 454 269 458T264 464V490Q264 492 269 496T277 500H323Q326 500 331 496T336 490V464Q336 462 332 458T323 454H318V445Q386 439 438 394L447 402L442 407Q437 415 439 418L457 438Q465 438 467 436L501 402Q504 399 504 392L483 374Q482
373 473 376L467 381ZM424 111Q474 161 474 233T424 356Q372 406 301 406T179 356Q126 306 126 234T179 111Q229 61 300 61T424 111ZM246 363T300 363T391 325T429 235Q429 180 392 142T300 103T209 141T171 235Q171 287 208 325ZM352 289L310 265Q294 270 277
258Q267 248 267 234T277 209T300 199T323 209Q340 231 328 250L352 289Z" />
<glyph unicode="r" glyph-name="r" d="M187 230H78Q56 265 56 328Q56 375 76 426L195 431Q205 442 224 456Q233 463 260 474Q318 493 356 483L362 490Q369 496 377 499Q408 500 431 488T455 455V444Q499 440 499 405Q499 404 499 399T500 390Q519 385 524 379Q532
368 532 353Q532 333 523 320Q545 297 545 273Q545 240 509 219Q495 212 483 205T452 192T415 186H392Q393 174 395 168T402 154T412 139L421 117Q425 109 428 97Q439 70 439 54Q439 26 423 13T393 3Q372 6 367 41L357 73L296 159Q293 164 256 192T212 224Q204
230 187 230Z" />
<glyph unicode="s" glyph-name="s" d="M225 414L402 317Q423 333 448 333Q479 333 500 312T522 259T501 207T448 185Q422 185 404 200L223 93Q226 84 226 74Q226 43 205 22T152 0T100 21T78 74T99 126T152 148Q182 148 203 127L379 231Q374 246 374 259T379 285L209
379Q188 352 152 352Q121 352 100 373T78 426T99 478T152 500T204 479T226 426Q226 418 225 414Z" />
<glyph unicode="t" glyph-name="t" d="M141 483V456Q183 440 214 443T281 456T346 476T414 486T489 464V234Q452 254 414 255T347 247T282 226T215 213T141 225V14Q141 8 135 4T123 0T112 4T106 14V483Q106 489 111 493T123 498Q130 498 135 494T141 483Z" />
<glyph unicode="u" glyph-name="u" d="M414 275H523Q545 206 545 175Q545 121 525 74L406 69Q396 58 377 44Q370 38 341 26Q316 17 287 15T246 17L240 10Q233 3 225 1Q194 0 170 12T146 45V56Q102 61 102 95V110Q82 115 78 121Q69 132 69 148Q69 168 78 181Q56
204 56 229Q56 265 93 286Q106 296 133 309T186 322H210Q209 331 207 336T199 349T189 366L180 383Q176 391 173 403Q162 433 162 446Q162 474 178 487T209 497Q220 496 226 484T234 459L244 427L305 342Q309 338 346 310T390 278Q394 275 414 275Z" />
<glyph unicode="v" glyph-name="v" d="M567 364Q569 311 527 253T428 147Q397 121 351 66T296 4Q230 93 167 147Q72 228 41 305Q28 334 28 364Q28 420 68 460T165 500Q213 500 250 470T298 395Q309 441 346 470T431 500Q487 500 527 460T567 364Z" />
<glyph unicode="w" glyph-name="w" d="M455 15Q463 22 440 103T419 193Q421 201 484 254T545 317Q542 328 460 330T372 336Q365 341 337 420T297 500Q287 500 260 420T226 335Q220 330 139 326T54 311T115 250T183 190Q185 182 164 100T151 12Q159 5 226 53T302
102T378 55T455 15Z" />
<glyph unicode="x" glyph-name="x" d="M304 94L466 0V500H134V0L304 94Z" />
<glyph unicode="y" glyph-name="y" d="M38 443H562Q578 443 589 432T600 405V95Q600 79 589 68T562 57H38Q22 57 11 68T0 95V405Q0 421 11 432T38 443ZM233 121H273V400H31V121H67V124V129Q67 132 69 138Q69 158 80 175T107 192H131Q130 192 130 201Q112 208 101
224T89 261Q89 288 107 307T150 326T193 307T211 261Q211 240 200 224T170 200L169 192H196Q213 192 223 171T233 128V127V124V121ZM300 321H557V400H300V321ZM386 268H300V225H386V268ZM429 225H557V268H429V225ZM300 116H557V169H300V116Z" />
<glyph unicode="z" glyph-name="z" d="M319 420L150 229V160H450V240H279L450 431V500H156V420H319ZM450 64H151V0H255L385 -124V0H450V64Z" />
<glyph unicode="{" glyph-name="braceleft" d="M300 499Q403 499 476 426T550 249T477 73T300 -1Q196 -1 123 72T50 249T123 425T300 499ZM300 83Q368 83 417 131T466 249T417 366T300 415Q231 415 182 367T133 249T182 132T300 83ZM217 284T217 249T241 190T300
166T358 190T382 249T358 307T300 332T242 308Z" />
<glyph unicode="}" glyph-name="braceright" d="M414 250L483 155Q488 158 494 158Q503 158 509 152T516 136T510 121T494 114T479 120T472 136V138L357 151L308 42Q320 35 320 22Q320 13 314 7T298 0T283 6T276 22Q276 37 290 42L243 151L124 138V136Q124 127
118 121T102 114T87 120T80 136T86 151T102 158Q107 158 115 154L186 250L116 346Q111 341 102 341T87 347T80 363T86 378T102 385T117 379T124 363L243 349L292 458Q279 463 279 478Q279 487 285 493T301 500T316 494T322 478Q322 463 310 458L357 348L476 361V363Q476
372 482 378T498 385T513 379T520 363T514 348T498 341Q493 341 485 345L414 250Z" />
</font>
</defs>
</svg>
