<?xml version="1.0" standalone="no"?> <!DOCTYPE svg PUBLIC "-//W3C//DTD SVG 1.0//EN" "http://www.w3.org/TR/2001/REC-SVG-20010904/DTD/svg10.dtd" > <svg xmlns="http://www.w3.org/2000/svg" width="100%" height="100%">
<defs >
<font horiz-adv-x="600" ><font-face
    font-family="Zurmo Symbly Regular"
    units-per-em="1000"
    panose-1="0 0 5 0 0 0 0 0 0 0"
    ascent="1000"
    descent="-200"
    alphabetic="0" />
<missing-glyph horiz-adv-x="500" d="M0 0V700H500V0H0ZM250 395L420 650H80L250 395ZM280 350L450 95V605L280 350ZM80 50H420L250 305L80 50ZM50 605V95L220 350L50 605Z" />
<glyph unicode="!" glyph-name="exclam" d="M412 482L444 463L465 411L282 93H281L134 0L142 173L325 493L381 500L412 482ZM198 68H200L268 114L257 132H212L187 172L166 173L159 90L198 68Z" />
<glyph unicode="%" glyph-name="percent" d="M235 352H465Q472 352 477 347T482 335V199Q482 192 477 187T465 182H235Q228 182 223 187T218 199V335Q218 342 223 347T235 352ZM388 275H350V256H388V275ZM321 210H338V333H232V210H248V212V214Q248 216 249 218Q249
227 253 234T265 242H276Q275 242 275 245Q257 252 257 272Q257 284 265 292T284 300T303 292T311 272Q311 252 293 245L292 242H304Q311 242 316 232T321 213V212V210ZM350 208H463V231H350V208ZM407 256H463V275H407V256ZM350 298H463V333H350V298ZM509 104Q447
42 360 37T204 83L127 6Q112 -8 98 6L83 21Q77 27 77 35T83 50L160 127Q108 195 113 282T181 432Q248 500 344 500T509 432T577 268T509 104ZM154 189T210 133T345 77T480 133T536 268T480 403T345 459T210 403T154 268Z" />
<glyph unicode="+" glyph-name="plus" d="M266 173V200Q283 186 306 186Q332 186 346 200V173Q346 168 339 162T323 155V147Q323 140 313 140H298Q291 140 291 147V155Q280 156 273 161T266 173ZM338 176V186Q323 176 306 176Q299 176 291 178T278 184L273 186V176Q286
166 306 166Q315 166 323 168T334 174L338 176ZM306 392Q341 392 363 371T386 319Q386 292 364 266Q360 242 345 225T306 208Q284 208 268 225T248 266Q228 290 228 319Q228 350 250 371T306 392ZM306 228Q341 228 341 238T321 248L341 289Q338 291 336 291Q331
291 331 289L311 251H306H301L281 289Q281 291 276 291L273 289L293 248Q270 248 270 238T306 228ZM471 104Q409 42 322 37T166 83L89 6Q74 -8 60 6L45 21Q39 27 39 35T45 50L122 127Q70 195 75 282T143 432Q210 500 306 500T471 432T539 268T471 104ZM116 189T172
133T307 77T442 133T498 268T442 403T307 459T172 403T116 268Z" />
<glyph unicode="," glyph-name="comma" d="M446 279Q462 195 450 135V134Q439 76 396 38T297 0Q233 0 188 48T143 164Q143 213 166 251Q167 252 169 256T174 262T177 268T180 284T175 311Q156 359 141 378Q151 383 184 364T221 320Q278 405 247 450Q214 499 224
498Q234 495 250 490T294 464T326 419L333 359Q345 372 348 399Q349 411 348 422T346 436T347 442Q349 443 365 405Q419 279 427 279Q429 279 429 283Q429 294 427 303T422 317T421 323T427 323T437 309T446 279ZM314 60Q337 60 354 74T371 110Q371 128 346 173T314
218Q313 218 311 193T296 141T256 110Q237 107 260 86Q288 60 314 60Z" />
<glyph unicode="-" glyph-name="hyphen" d="M513 154H575Q585 154 592 147T600 128Q600 118 593 111T575 103H513V40Q513 30 506 23T488 15T471 22T463 40V103H400Q390 103 383 110T375 128Q375 139 382 146T400 154H463V215Q463 226 470 233T488 240T505 233T513
215V154ZM23 484H577Q587 484 593 478T600 461V212Q578 231 552 231H536V246Q536 275 515 296T465 317T415 296T394 246V231H377Q348 231 327 210T306 159Q306 135 321 115H23Q13 115 7 122T0 138V461Q0 471 6 477T23 484ZM69 300H138V369H69V300Z" />
<glyph unicode="." glyph-name="period" d="M550 500H564L560 488Q555 474 546 453T509 384T452 314Q397 271 348 263Q332 261 299 261Q264 262 252 261Q243 260 229 249Q222 242 214 209T202 145L197 115Q195 113 191 113L183 115Q191 188 207 231Q204 239 201
242Q190 248 157 248Q106 246 68 275Q55 286 47 307T38 344L36 360L37 366H46Q132 360 166 337Q190 322 197 309T201 276Q199 258 200 255T207 246L211 242Q217 255 222 259Q235 270 239 277T251 320Q261 361 279 388T345 447Q394 481 488 493L550 500ZM157 265L188
256L176 287L136 318L62 335L79 307L108 280L157 265ZM257 278L326 285L397 334L446 420L348 395L282 329L257 278ZM398 43Q424 43 428 40Q436 34 425 27Q412 21 405 23Q402 24 393 18Q379 7 374 12Q370 17 361 17T348 14Q330 2 322 6Q301 20 293 14Q288 12 287
12T280 14T270 16Q264 17 256 11T240 5Q234 5 226 7T212 12T205 14Q205 14 205 11Q207 3 203 3Q202 3 201 4Q185 9 168 3Q164 2 146 11Q139 14 108 8Q91 5 80 11Q78 12 80 14Q80 15 75 20T70 28Q70 30 54 32Q41 34 47 41Q52 47 53 51T53 60T52 66Q52 69 59 74T77
86T92 100Q108 125 121 122Q132 117 145 128Q157 137 167 128Q172 124 174 124Q174 122 174 119L173 116V112L176 109Q179 103 191 103Q201 103 204 109L206 111V114Q207 119 209 131Q220 131 223 128Q228 123 237 120T252 120Q257 126 280 116Q284 115 290 111T298
105T308 106Q317 110 325 106T334 97Q336 85 348 87Q361 89 366 82Q372 68 383 65Q392 63 391 57Q391 56 391 53T390 48T392 45T398 43Z" />
<glyph unicode="0" glyph-name="zero" d="M600 444V58Q600 42 587 29T557 15H43Q26 15 13 28T0 58V444Q0 460 13 473T43 486H557Q573 486 586 473T600 444ZM407 422H193V336H407V422ZM343 186H471V229H343V186ZM514 101V144H343V101H514ZM171 422H64V336H171V422ZM64
79H300V294H64V79ZM343 251H536V294H343V251ZM450 336H536V422H450V336Z" />
<glyph unicode="1" glyph-name="one" d="M221 64V120Q254 92 300 92Q345 92 379 120V64Q379 38 332 28V15Q332 0 315 0H285Q278 0 273 4T268 15V28Q221 38 221 64ZM365 69V91Q333 70 300 70Q285 70 269 75T244 86L236 91V69Q261 49 300 49Q318 49 334 54T358 64L365
69ZM300 500Q368 500 413 458T458 356Q458 298 414 250Q408 203 377 168T300 133V133Q255 133 224 168T186 250Q142 298 142 356Q142 416 187 458T300 500V500ZM300 177Q370 177 370 197Q370 211 328 216L367 293Q369 297 361 299Q352 301 349 296L310 218H300H289L250
296Q248 301 240 299T234 293L272 216Q229 211 229 197Q229 188 249 183T300 177Z" />
<glyph unicode="2" glyph-name="two" d="M90 296T90 209T151 61T299 0Q388 0 448 58T509 211H428Q428 156 391 119T299 81Q246 81 209 118T171 209Q171 263 207 300T295 338H300V275Q300 267 304 264T315 264Q322 267 386 316T454 368Q461 372 461 379T453 390Q445
395 383 444T317 495Q310 499 305 495T300 483V418H295Q209 418 150 357Z" />
<glyph unicode="3" glyph-name="three" d="M566 456L587 435V389L422 225V0H13V386L127 500H422V412L493 483H540L566 456ZM59 45H377V179H376L240 136L283 272L377 366V455H149L59 364V45ZM314 178L370 198L365 214L329 225L318 261L302 266L282 210L310 182L314
178ZM127 381H331V359H127V381ZM127 315H240V292H127V315ZM127 250H240V227H127V250ZM127 182H218V159H127V182ZM331 91H127V114H331V91Z" />
<glyph unicode="4" glyph-name="four" d="M223 177L173 231Q164 242 165 255Q165 267 175 277L191 291Q200 300 213 300T237 289L266 257L388 371Q398 379 410 379Q425 379 434 369L448 353Q457 343 457 330T446 307L305 176L304 174Q302 172 301 171L285 157Q275
149 263 149H261Q249 149 239 159L224 175Q224 176 223 177ZM96 500H504Q523 500 536 487T550 454V46Q550 27 537 14T504 0H96Q77 0 64 13T50 46V454Q50 473 63 486T96 500ZM113 63H488V438H113V63Z" />
<glyph unicode="5" glyph-name="five" d="M302 498L303 500L529 205H403V198V0H302H197V198V205H74L301 500L302 498Z" />
<glyph unicode="6" glyph-name="six" d="M303 5L302 1L74 294H198V308V500H303H405V308V294H532L304 0L303 5Z" />
<glyph unicode="7" glyph-name="seven" d="M567 250L571 249L252 0V140H236H27V250V365H236H252V500L573 251L567 250Z" />
<glyph unicode="8" glyph-name="eight" d="M34 250L29 251L345 500V365H367H571V250V140H367H345V0L27 249L34 250Z" />
<glyph unicode="9" glyph-name="nine" d="M226 59V108Q258 82 298 82Q344 82 370 108V59Q370 49 358 40T329 28V13Q329 0 311 0H284Q271 0 271 13V28Q252 30 239 39T226 59ZM356 64V82Q329 64 298 64Q286 64 271 68T248 78L239 82V64Q262 46 298 46Q314 46 328
50T350 60L356 64ZM298 451Q361 451 401 413T442 320Q442 274 402 226Q394 182 367 152T298 122Q259 122 230 153T194 226Q158 267 158 320Q158 375 197 413T298 451ZM272 158T298 158T342 163T361 176T351 188T325 194L361 266Q356 271 352 271Q343 271 343 266L307
198H298H289L253 266Q253 271 244 271Q240 270 239 266L275 194Q259 194 247 189T234 176T253 164ZM174 477L144 533Q134 550 149 559Q165 568 176 551L210 500Q205 496 192 489T174 477ZM456 533L426 477Q420 481 409 488T390 500L420 551Q431 569 446 559Q466
552 456 533ZM559 451Q563 444 560 436T551 424L492 387Q486 404 474 423L533 456Q547 464 559 451ZM320 582V517H298H280V582Q280 588 285 594T298 600Q307 600 313 594T320 582ZM509 320H577Q586 320 593 315T600 302Q600 292 594 286T577 280H504Q509 293 509
320ZM41 451Q50 466 67 456L125 424Q117 417 107 388L46 424Q31 432 41 451ZM18 320H79Q79 303 88 280H18Q12 280 6 286T0 302Q0 309 6 314T18 320Z" />
<glyph unicode=":" glyph-name="colon" d="M481 335L441 302L472 260L422 246L433 195L382 203L380 194L460 32L414 38L390 -3L311 156L297 137L287 153L209 -3L186 38L139 32L217 190L215 205L163 199L176 250L126 265L159 306L120 341L166 365L144 412L196 416L195
468L244 449L265 497L302 461L341 496L360 448L409 464L407 412L459 407L436 361L481 335ZM237 345Q236 342 253 329T270 314Q271 312 266 291T262 268T281 278T301 291T320 279T340 269Q342 270 340 280T334 302T331 315Q332 317 348 330T364 347T342 350T319
352T310 373T300 394T290 373T281 351T269 350T248 348T237 345Z" />
<glyph unicode=";" glyph-name="semicolon" d="M375 285Q356 268 331 256L326 181Q405 149 418 134L416 133V0H184V135Q190 144 212 155T253 174L272 181Q268 229 268 256Q246 266 224 285Q191 280 166 286Q131 294 112 328T99 395Q108 435 153 440L151 479Q199
500 300 500Q345 500 382 495T434 484L449 479Q449 463 447 440Q492 435 501 395Q508 362 489 328T434 286Q409 280 375 285ZM442 412Q431 354 399 312Q414 311 428 314Q449 319 461 343T469 388Q463 409 442 412ZM172 314Q186 311 201 312Q169 354 158 412Q135
409 131 388Q126 367 138 343T172 314ZM223 39H378V78H223V39Z" />
<glyph unicode="=" glyph-name="equal" d="M331 374L359 347H458V174H240V339L267 374H331ZM509 104Q447 42 360 37T204 83L127 6Q112 -8 98 6L83 21Q77 27 77 35T83 50L160 127Q108 195 113 282T181 432Q248 500 344 500T509 432T577 268T509 104ZM154 189T210
133T345 77T480 133T536 268T480 403T345 459T210 403T154 268Z" />
<glyph unicode="?" glyph-name="question" />
<glyph unicode="A" glyph-name="A" d="M505 491V361L595 306L550 273V0H281V133Q281 155 265 170T226 186Q203 186 187 171T170 133V0H58V273L5 306L298 500L416 422V491H505Z" />
<glyph unicode="B" glyph-name="B" d="M600 105V395Q600 414 586 428T552 443H116Q97 443 83 429T69 395V105Q69 85 83 71T116 57H552Q572 57 586 71T600 105ZM78 299L0 244L78 188V299Z" />
<glyph unicode="C" glyph-name="C" d="M179 370V491Q179 500 171 500H49Q40 500 40 491V370Q40 360 49 360H171Q179 360 179 370ZM179 189V311Q179 320 171 320H49Q40 320 40 311V189Q40 180 49 180H171Q179 180 179 189ZM179 9V131Q179 140 171 140H49Q40 140
40 131V9Q40 0 49 0H171Q179 0 179 9ZM560 370V491Q560 500 551 500H229Q220 500 220 491V370Q220 360 229 360H551Q560 360 560 370ZM560 189V311Q560 320 551 320H229Q220 320 220 311V189Q220 180 229 180H551Q560 180 560 189ZM560 9V131Q560 140 551 140H229Q220
140 220 131V9Q220 0 229 0H551Q560 0 560 9Z" />
<glyph unicode="D" glyph-name="D" d="M421 130V9Q421 0 429 0H551Q560 0 560 9V130Q560 140 551 140H429Q421 140 421 130ZM421 311V189Q421 180 429 180H551Q560 180 560 189V311Q560 320 551 320H429Q421 320 421 311ZM421 491V369Q421 360 429 360H551Q560
360 560 369V491Q560 500 551 500H429Q421 500 421 491ZM40 130V9Q40 0 49 0H371Q380 0 380 9V130Q380 140 371 140H49Q40 140 40 130ZM40 311V189Q40 180 49 180H371Q380 180 380 189V311Q380 320 371 320H49Q40 320 40 311ZM40 491V369Q40 360 49 360H371Q380
360 380 369V491Q380 500 371 500H49Q40 500 40 491Z" />
<glyph unicode="E" glyph-name="E" d="M385 291H460Q473 291 483 279T494 252V22Q494 0 460 0H142Q106 0 106 22V252Q106 267 117 279T142 291H216H385ZM301 78Q315 78 324 88T334 112Q334 114 334 117T334 122T334 127T332 132T327 136T319 140V200Q319 219 299
219Q280 219 280 200V140Q280 137 273 128T265 112Q265 98 275 88T301 78ZM376 349V346Q376 381 355 405T299 429T243 405T222 346V291H144V346Q144 410 188 455T299 500T410 455T455 346V349H376Z" />
<glyph unicode="F" glyph-name="F" d="M222 346V136H144V346Q144 410 189 455T300 500T410 455T455 346V136H376V346Q376 381 355 404T299 428T243 405T222 346ZM384 291H458Q473 291 484 279T495 252V21Q495 0 458 0H140Q106 0 106 21V252Q106 266 116 278T140
291H214H384ZM300 78Q314 78 323 87T333 111Q333 113 333 117T334 124T332 130T328 135T319 139V199Q319 218 300 218T281 199V139Q275 137 272 135T267 130T265 125T264 118T265 111Q265 97 274 88T300 78Z" />
<glyph unicode="G" glyph-name="G" d="M245 0T301 0T382 31T409 98V345Q409 359 395 359T381 345V98Q381 92 379 84T370 61T345 37T301 27T257 36T231 60T221 82T217 98V431Q224 472 271 472T325 431V152Q325 132 315 122Q308 115 296 115Q283 115 276 124T267
141T265 153V346Q265 351 261 355T251 360Q246 360 242 356T237 346V153Q238 130 252 109T296 87Q319 87 335 103Q353 121 353 153V432V433Q351 456 331 478T271 500Q232 500 212 478T190 433V432V98V97Q191 63 218 32Z" />
<glyph unicode="H" glyph-name="H" d="M441 20Q478 41 492 73T504 129T490 174L353 411Q345 425 333 416Q318 409 327 396L463 158Q466 152 469 143T473 116T463 80T425 46Q356 7 306 67L122 388Q119 393 118 402T123 428T150 456Q192 481 225 448L381 179Q390
160 387 145Q384 134 372 127Q360 118 348 124T330 136T321 147L215 333Q205 345 192 338Q188 336 187 329T187 316L295 132Q303 119 315 109T347 93T388 100Q410 114 416 137Q422 163 406 196L251 463L250 464Q242 476 227 485T187 497T135 483Q115 472 103 457T89
426T87 397T94 374L95 373L281 52V51Q292 32 312 19T367 1T441 20Z" />
<glyph unicode="I" glyph-name="I" d="M103 358Q103 378 88 393T52 409T16 394T0 358Q0 336 15 321T52 305T88 320T103 358ZM283 121T283 142T268 178T232 193Q210 193 195 178T180 142T195 106T232 90Q252 90 267 105ZM408 283T408 305T393 342T355 358T319 343T304
305T318 268T355 253T392 268ZM600 202Q600 223 585 238T548 253T512 238T497 202Q497 180 512 165T548 150T584 165T600 202ZM40 347L233 116L360 286L540 187L556 216L350 326L232 167L65 367L40 347Z" />
<glyph unicode="J" glyph-name="J" d="M422 379Q422 309 372 277Q354 259 354 251V31Q337 0 322 0Q312 0 303 11T290 31Q303 40 303 45Q303 49 293 59T282 71V87Q282 89 289 96T297 106Q297 107 290 113T282 123V137Q282 140 287 144T292 151Q292 152 287 157T282
166V187L244 204V249Q244 256 240 264T230 278L226 282Q178 310 178 379Q178 429 213 464T299 500Q350 500 386 465T422 379ZM324 465T299 465T254 453T233 431Q233 422 252 415T299 408T345 415T365 431Q365 441 345 453Z" />
<glyph unicode="K" glyph-name="K" d="M435 202T435 191T398 173T301 165V175V175V175V165Q240 165 203 172T165 191Q165 199 171 217Q174 228 189 243T220 261H219L236 417Q221 420 206 430T185 449Q176 465 176 473Q176 494 301 498V495V500V500V495V499Q347
499 386 492T426 474Q426 471 415 449Q410 441 395 431T364 417L381 261Q397 258 411 243T430 217Q435 202 435 191ZM299 153H301Q305 153 314 152T328 151L301 0L273 151Q278 151 286 152T299 153Z" />
<glyph unicode="L" glyph-name="L" d="M449 234H448Q446 232 443 228T437 221L321 12Q312 0 300 0Q295 0 290 3T282 9L279 12L163 220Q161 222 157 227T152 234H151Q148 241 143 256T136 275T131 289T128 306T127 324Q127 397 177 448T300 500T422 449T473 326Q473
298 449 234ZM328 393T300 393T253 374T233 327Q233 299 252 280T300 260T347 279T367 327Q367 354 348 373Z" />
<glyph unicode="M" glyph-name="M" d="M548 349Q572 338 586 317T600 270Q600 233 573 208T508 182Q489 182 470 190Q459 181 450 177L426 176V300H229V176L208 177Q129 193 114 230Q94 217 72 217Q42 217 21 237T0 286Q0 314 21 334T72 354Q84 354 97 349Q105
376 126 392T173 409Q184 409 189 408Q194 440 217 461T272 483Q324 483 347 435Q351 436 359 436Q405 436 436 405Q456 425 483 425Q511 425 530 406T549 360Q549 353 548 349ZM325 16V15L231 137H276V250H377V137H420L326 15L325 16Z" />
<glyph unicode="N" glyph-name="N" d="M548 366Q571 355 585 334T600 287Q600 251 573 225T509 198Q492 198 470 207Q463 200 443 191L357 303L345 318L326 344L325 342V344L306 319L210 194Q131 209 113 247Q95 234 72 234Q42 234 21 254T0 302Q0 331 21 351T72
371Q88 371 97 366Q104 393 125 409T174 426Q176 426 181 426T189 425Q194 457 217 478T273 500Q324 500 347 452H359Q404 452 436 422Q454 442 483 442Q510 442 529 423T549 377Q549 370 548 366ZM326 246V247L420 124H369V122V0H326H283V122V124H231L325 247L326
246Z" />
<glyph unicode="O" glyph-name="O" d="M150 493H452Q511 493 555 451T600 350V243Q600 186 556 147T452 107H250L107 6V107Q70 120 35 159T0 243V350Q0 408 45 450T150 493Z" />
<glyph unicode="P" glyph-name="P" d="M254 500L326 431H572V0H28V413L95 500H254Z" />
<glyph unicode="Q" glyph-name="Q" d="M550 264V215Q550 209 544 205T529 200H491Q491 196 490 193T488 185T485 177L512 161Q529 152 520 139L496 97Q489 83 473 93L443 110Q440 108 435 102T426 94L442 66Q450 51 438 42L396 18Q383 11 374 26L357 58Q338 55
338 54V19Q338 12 331 6T318 0H269Q261 0 261 19V59Q254 60 238 65L216 32Q206 17 193 24L151 48Q138 56 147 72L168 109Q164 113 156 123L120 102Q105 93 96 107L72 148Q65 162 80 171L119 194Q118 197 117 202T115 211H71Q63 211 57 215T50 227V275Q50 288 73
288H119Q119 292 124 306L86 329Q70 338 78 351L102 393Q109 407 126 398L165 375Q167 377 171 381T178 387L157 424Q147 439 161 448L202 472Q216 479 224 464L245 426Q247 427 251 428T258 430L261 431V471Q261 480 267 490T281 500H329Q338 500 338 471V431Q345
431 361 426L383 458Q392 475 406 466L447 442Q461 435 452 418L433 386L448 371L478 388Q494 397 502 384L526 343Q533 329 518 321L488 306Q489 303 490 299T492 291L493 288H525Q533 288 541 279T550 264ZM299 154Q337 154 364 180T391 245T364 310T299 337T235
310T208 245Q208 208 235 181T299 154Z" />
<glyph unicode="R" glyph-name="R" d="M90 386L203 500H499V0H90V386ZM112 363H227V476L112 363Z" />
<glyph unicode="S" glyph-name="S" d="M106 307H494Q517 307 533 290T550 249T534 209T494 192H106Q83 192 67 209T50 249T66 289T106 307Z" />
<glyph unicode="T" glyph-name="T" d="M405 475L379 373L515 53V50Q515 30 452 15T300 0T149 15T85 50Q85 52 87 56L219 373L193 475Q193 485 224 492T299 500T374 493T405 475ZM214 475Q245 464 299 464Q352 464 383 475Q355 485 299 485Q242 485 214 475ZM299
22Q372 22 423 32T489 52L355 372L374 450Q348 443 299 443Q249 443 223 450L242 372L108 52Q123 41 174 32T299 22ZM373 206Q375 209 388 220L449 70Q397 52 299 52T149 70L217 241Q257 234 265 227Q296 202 314 208Q332 215 345 206Q366 196 373 206Z" />
<glyph unicode="U" glyph-name="U" d="M164 95Q131 95 116 122Q104 144 104 177Q104 193 106 209Q109 229 117 245Q125 258 136 265T165 272Q188 272 203 260Q216 249 219 228H185Q185 232 182 237Q176 245 166 245Q150 245 142 227Q138 214 137 197Q142 204 152
207Q159 211 170 211Q193 211 208 195Q222 179 222 156T208 114Q192 95 164 95ZM148 179Q138 172 138 154Q138 139 145 132Q152 123 164 123Q174 123 182 131Q188 140 188 153Q188 169 181 176Q173 184 163 184Q155 184 148 179ZM323 279H351L283 100H256L323 279ZM437
123Q447 123 454 130Q461 136 461 149Q461 166 448 172Q439 175 423 175V199Q440 199 446 202Q457 208 457 222Q457 232 451 238Q446 244 435 244T418 237Q412 229 413 217H381Q383 233 386 241Q389 251 399 259Q405 265 414 268Q422 272 436 272Q460 272 476 259Q491
247 491 225Q491 209 482 200Q476 192 470 191Q475 191 483 183Q496 171 496 150Q496 128 481 112T437 96Q401 96 386 119Q379 134 378 152H411Q411 142 414 135Q422 123 437 123ZM141 403T133 403T120 408T114 422V481Q114 489 119 494T133 500T146 495T152 481V422Q152
414 147 409ZM476 403T468 403T455 408T449 422V481Q449 489 454 494T468 500T482 495T488 481V422Q488 414 482 409ZM511 410V434Q537 432 554 413T572 366V68Q572 40 553 20T505 0H96Q68 0 48 20T28 68V366Q28 393 46 412T90 434V410Q90 392 103 379T134 366Q153
366 166 379T179 410V434H421V410Q421 392 434 379T466 366T498 379T511 410ZM532 68V330H69V68Q69 57 77 49T96 41H505Q516 41 524 49T532 68Z" />
<glyph unicode="V" glyph-name="V" d="M39 0H152V159H39V0ZM175 0H289V363H175V0ZM311 0H425V500H311V0ZM447 0H560V295H447V0Z" />
<glyph unicode="W" glyph-name="W" d="M265 425L210 482Q196 495 179 495T151 484L111 445Q100 434 100 417T114 386L170 330Q183 317 200 317T230 327L268 367Q280 378 279 395T265 425ZM551 141L495 196Q482 209 465 209T436 199L396 160Q385 148 386 131T399
101L454 44Q468 32 485 32T514 42L553 82Q565 93 565 110T551 141ZM112 433L217 327Q217 327 210 320Q189 289 264 214Q305 172 338 156T384 143L397 147L502 42Q495 39 484 36T436 31T364 34T279 66T185 135Q142 178 119 225T93 307T93 372T104 418L112 433Z"
/>
<glyph unicode="X" glyph-name="X" d="M205 500T301 500T464 432T532 268T465 105T301 37H330L301 275L119 125Q91 156 80 188T69 268Q69 364 137 432ZM120 74L271 201L293 1Q194 -1 125 68Q120 72 120 74Z" />
<glyph unicode="Y" glyph-name="Y" d="M357 313H494Q517 313 533 297T550 257T534 217T494 200H357V56Q357 33 341 17T301 0T262 16T245 56V200H106Q83 200 67 217T50 257T66 296T106 313H245V444Q245 467 261 483T301 500T340 484T357 444V313Z" />
<glyph unicode="Z" glyph-name="Z" d="M299 351L421 472Q441 493 471 493T521 471Q541 451 541 422T522 372L400 250L522 128Q543 107 543 78T522 28Q501 8 472 8T422 27L299 150L177 28Q156 8 127 8T78 29Q58 49 58 78T77 128L199 250L78 371Q57 391 57 421T79
471Q99 491 128 491T178 472L299 351Z" />
<glyph unicode="[" glyph-name="bracketleft" d="M226 59V108Q258 82 298 82Q344 82 370 108V59Q370 49 358 40T329 28V13Q329 0 311 0H284Q271 0 271 13V28Q252 30 239 39T226 59ZM356 64V82Q329 64 298 64Q286 64 271 68T248 78L239 82V64Q262 46 298 46Q314
46 328 50T350 60L356 64ZM298 451Q361 451 401 413T442 320Q442 274 402 226Q394 182 367 152T298 122Q259 122 230 153T194 226Q158 267 158 320Q158 375 197 413T298 451ZM272 158T298 158T342 163T361 176T351 188T325 194L361 266Q356 271 352 271Q343 271
343 266L307 198H298H289L253 266Q253 271 244 271Q240 270 239 266L275 194Q259 194 247 189T234 176T253 164ZM174 477L144 533Q134 550 149 559Q165 568 176 551L210 500Q205 496 192 489T174 477ZM456 533L426 477Q420 481 409 488T390 500L420 551Q431 569
446 559Q466 552 456 533ZM559 451Q563 444 560 436T551 424L492 387Q486 404 474 423L533 456Q547 464 559 451ZM320 582V517H298H280V582Q280 588 285 594T298 600Q307 600 313 594T320 582ZM509 320H577Q586 320 593 315T600 302Q600 292 594 286T577 280H504Q509
293 509 320ZM41 451Q50 466 67 456L125 424Q117 417 107 388L46 424Q31 432 41 451ZM18 320H79Q79 303 88 280H18Q12 280 6 286T0 302Q0 309 6 314T18 320ZM0 120T0 85T24 25T84 0Q121 0 145 24T170 86H137Q137 64 122 49T84 34Q63 34 48 48T33 85T47 122T83 137H86V113Q86
104 91 107Q142 147 148 150Q156 154 148 159Q144 161 119 180T92 201Q86 206 86 197V170H83Q48 170 24 145Z" />
<glyph unicode="]" glyph-name="bracketright" d="M0 120T0 85T24 25T84 0Q121 0 145 24T170 86H137Q137 64 122 49T84 34Q63 34 48 48T33 85T47 122T83 137H86V113Q86 104 91 107Q142 147 148 150Q156 154 148 159Q144 161 119 180T92 201Q86 206 86 197V170H83Q48
170 24 145ZM364 500L419 447H599V132H199V436L248 500H364Z" />
<glyph unicode="a" glyph-name="a" d="M200 15Q221 15 239 35L278 66L290 74L569 336Q591 356 593 383T580 426L549 465Q542 468 533 473T517 482T501 485Q491 485 484 483T466 474T450 465L212 235L150 293Q134 311 125 317T102 324Q94 324 87 322T76 319T64
313T51 305L20 274Q0 254 0 227Q0 211 20 184L121 74V66L150 35Q174 15 200 15Z" />
<glyph unicode="b" glyph-name="b" d="M489 635H600Q634 635 659 609T684 547V518Q684 483 660 459T600 435H556L485 376V435Q449 435 433 459T416 518V547Q416 584 436 609T489 635ZM486 95V101Q486 138 454 183T387 229H333Q334 242 334 247Q371 261 395 295T419
372Q419 425 383 462T296 500Q245 500 209 463T173 372Q173 330 195 297T254 249L256 229H209Q179 229 151 195T111 122Q106 114 106 105Q105 101 105 95Q105 46 158 23T296 0T433 23T486 95Z" />
<glyph unicode="c" glyph-name="c" d="M455 76V41Q455 40 455 39T456 37Q408 0 295 0Q105 0 105 95Q105 102 106 105Q106 113 110 123Q122 162 150 196T208 231H255Q255 237 253 249Q217 263 195 296T173 370Q173 424 209 462T295 500Q346 500 382 462T418 370Q418
328 395 295T334 248Q333 245 333 240T332 231H387Q419 231 451 188H421Q398 188 382 172T365 132T381 93T421 76H455ZM537 158H602Q612 158 620 150T628 132T620 114T602 106H537V41Q537 30 530 23T511 15T493 22T485 41V106H421Q410 106 403 113T395 132T402
150T421 158H485V223Q485 234 492 241T511 249T529 242T537 223V158Z" />
<glyph unicode="d" glyph-name="d" d="M421 76H483Q462 0 295 0Q105 0 105 95Q105 102 106 105Q108 119 110 123Q122 162 150 196T208 231H255Q255 237 253 249Q217 263 195 296T173 370Q173 424 209 462T295 500Q346 500 382 462T418 370Q418 328 395 295T335
248Q333 238 333 231H387Q420 231 452 188H421Q398 188 382 172T365 132T381 93T421 76ZM421 158H602Q612 158 620 150T628 132T620 114T602 106H537H485H421Q410 106 403 113T395 132T402 150T421 158Z" />
<glyph unicode="e" glyph-name="e" d="M485 95V102Q485 140 454 186T387 232H332V235Q333 238 333 242T334 248Q371 261 394 294T418 370Q418 424 382 462T295 500Q245 500 209 462T173 371Q173 329 195 296T253 249L255 232H208Q179 232 151 198T110 124Q106
112 106 105Q105 102 105 95Q105 0 295 0T485 95Z" />
<glyph unicode="f" glyph-name="f" d="M559 193L558 191Q558 190 558 188T559 186Q559 149 521 124T427 98Q415 98 395 100Q385 58 335 29T219 0Q145 0 93 35T40 119V128Q42 138 44 144Q55 181 82 213T137 245H181Q180 258 179 263Q146 276 125 307T103 378Q103
429 137 464T219 500Q266 500 300 464T334 378Q334 338 312 306T256 262L254 245H305Q306 245 310 246T318 247Q344 285 366 285H399Q398 291 397 295Q372 305 357 327T341 377Q341 414 366 440T427 467T487 441T512 378Q512 349 496 326T454 294Q454 293 454 291T452
286V285H490Q515 285 537 252T559 193Z" />
<glyph unicode="g" glyph-name="g" d="M525 340Q528 337 528 332V26Q528 17 521 9T506 0H87Q78 0 71 8T63 26V332L66 338Q75 360 86 367Q253 499 296 500V500V500Q315 500 367 466T463 398L506 364Q520 356 525 340ZM295 179Q303 181 327 200T389 249T454 296H444V380H148V296H138Q166
278 202 250T262 201T295 179Z" />
<glyph unicode="h" glyph-name="h" d="M600 431V70Q600 59 592 51T573 43H27Q16 43 8 51T0 70V431Q0 442 8 449T27 457H573Q584 457 592 450T600 431ZM113 139H229V182H113V139ZM113 205H345V249H113V205ZM113 275H365V321H113V275ZM484 321H550V411H484V321Z" />
<glyph unicode="i" glyph-name="i" d="M198 500H399L553 351V150L399 0H198L47 150V351L198 500ZM409 189L348 250L409 312Q420 322 420 336T409 361Q398 371 384 371T360 361L299 300L238 361Q228 371 213 371T188 361Q178 350 178 336T188 312L249 250L188 189Q178
179 178 165T188 140T213 130T238 140L299 201L360 140Q370 130 384 130T409 140T420 164T409 189Z" />
<glyph unicode="j" glyph-name="j" d="M579 46Q587 30 579 15T552 0H51Q32 0 23 14T24 47L274 479Q283 495 301 495T328 479L579 46ZM279 341Q270 332 270 318Q270 308 276 255Q279 228 286 153V144H314L315 153Q319 195 326 256Q332 312 332 318Q332 332 323
341T301 350Q286 350 279 341ZM324 76Q333 85 333 98Q333 112 324 121Q314 131 301 131Q287 131 278 121Q268 111 268 98Q268 86 278 76Q287 66 301 66Q314 66 324 76Z" />
<glyph unicode="k" glyph-name="k" d="M269 233L281 221Q292 211 290 194T274 163L137 21Q124 8 107 6T79 14L67 26Q56 36 58 53T74 84L211 226Q224 239 241 241T269 233ZM149 114L162 101L233 172L220 185L149 114ZM364 500Q438 500 489 448T541 323T489 199T364
147T239 198T187 323T239 448T364 500ZM310 192T364 192T456 230T495 323Q495 378 457 416T364 454T272 416T233 323Q233 269 271 231Z" />
<glyph unicode="l" glyph-name="l" d="M130 291H162Q171 291 177 285T184 269L182 239L184 214Q184 205 178 199T162 192H130Q121 192 115 198T108 214L111 241L108 269Q108 278 114 284T130 291ZM283 383H315Q325 383 331 377T338 361L335 331L338 305Q338 297
332 291T315 284H283Q275 284 269 290T262 305L264 334L262 361Q262 370 268 376T283 383ZM94 500H505Q533 500 553 481T573 435V66Q573 39 553 20T505 0H94Q67 0 48 19T28 66V435Q28 462 47 481T94 500ZM206 215L203 239L206 269Q206 287 194 299T163 313V410Q163
426 147 426T131 410V313H130Q111 313 99 300T86 266L88 241L86 214Q86 195 98 183T130 170H131V95Q131 79 147 79T163 95V170Q181 170 193 183T206 215ZM360 308L357 331L360 361Q360 379 347 392T315 405V410Q315 417 311 421T300 426Q293 426 288 422T283 410V405Q265
405 253 392T240 359L242 334L240 305Q240 288 252 275T283 262V95Q283 88 288 84T300 79Q306 79 310 83T315 95V262Q334 262 347 275T360 308ZM514 155L512 178L514 208Q514 227 501 240T470 253H468V410Q468 426 452 426T436 410V252Q418 251 406 238T394 206L396
181L393 153Q393 135 405 123T436 109V95Q436 79 452 79T468 95V109H470Q488 109 501 122T514 155ZM438 230H470Q492 230 492 208L490 178L492 153Q492 144 486 138T470 131H438Q429 131 423 137T416 153L418 181L416 208Q416 218 422 224T438 230Z" />
<glyph unicode="m" glyph-name="m" d="M372 341V411Q430 388 471 333T512 211Q512 124 449 62T299 0Q211 0 149 62T87 211Q87 277 127 331T226 410V339Q196 318 174 284T152 211Q152 150 195 108T300 65T404 107T448 211Q448 250 426 285T372 341ZM335 263V464Q335
479 325 489T299 500T274 490T263 464V263Q263 248 273 238T299 227T324 237T335 263Z" />
<glyph unicode="n" glyph-name="n" d="M550 308V192H478Q474 180 467 167L519 115L438 35L386 87Q372 79 358 75V0H242V75Q228 79 214 87L161 35L81 115L133 167Q126 180 122 192H50V308H120Q128 330 133 340L81 392L161 472L214 420Q228 428 242 432V500H358V432Q372
428 386 420L438 472L519 392L467 340Q472 330 480 308H550ZM379 253Q379 286 356 309T300 332T245 309T221 253Q221 221 244 198T300 175T355 198T379 253Z" />
<glyph unicode="o" glyph-name="o" d="M196 500T300 500T477 427T550 250T477 73T300 0T123 73T50 250T123 427ZM215 45T300 45T445 105T505 250T445 395T300 455T155 395T95 250T155 105ZM262 346H338V403H262V346ZM338 308H262V95H338V308Z" />
<glyph unicode="p" glyph-name="p" d="M196 500T300 500T477 427T550 250T477 73T300 0T123 73T50 250T123 427ZM215 45T300 45T445 105T505 250T445 395T300 455T155 395T95 250T155 105ZM200 288H260Q260 345 303 345Q338 345 338 313Q338 289 311 269Q280 244
280 205V192H319V203Q348 239 362 249Q399 277 399 316Q399 345 375 368T298 392Q255 392 228 362T200 288ZM338 172H261V95H338V172Z" />
<glyph unicode="q" glyph-name="q" d="M449 384Q511 322 511 234T449 82Q388 20 300 20T150 82Q88 146 88 234T150 384T300 446T449 384ZM179 111Q229 61 300 61T424 111Q474 161 474 233T424 356Q372 406 301 406T179 356Q126 306 126 234T179 111ZM277 500H323Q326
500 331 496T336 490V464Q336 462 332 458T323 454H318V436H282V454H277Q273 454 269 458T264 464V490Q264 492 269 496T277 500ZM99 405L132 436Q137 444 143 438L161 420Q166 415 158 410L153 405L171 387L148 366L132 384L127 379Q121 373 117 376L96 394Q96
402 99 405ZM467 436L501 402Q504 399 504 392L483 374Q482 373 473 376L467 381L452 363L429 387L447 402L442 407Q437 415 439 418L457 438Q465 438 467 436ZM246 363T300 363T391 325T429 235Q429 180 392 142T300 103T209 141T171 235Q171 287 208 325ZM323
209Q340 231 328 250L352 289L310 265Q294 270 277 258Q267 248 267 234T277 209T300 199T323 209Z" />
<glyph unicode="r" glyph-name="r" d="M187 230H78Q56 265 56 328Q56 375 76 426L195 431Q205 442 224 456Q233 463 260 474Q318 493 356 483Q364 495 377 499Q408 500 431 488T455 455V444Q499 440 499 405Q499 404 499 399T500 390Q519 385 524 379Q532 368
532 353Q532 333 523 320Q545 297 545 273Q545 240 509 219Q507 218 499 213T487 206T475 200T461 195T448 191T432 187T415 186H392Q393 174 395 168T402 154T412 139L421 117Q425 109 428 97Q439 70 439 54Q439 26 423 13T393 3Q372 6 367 41L357 73L296 159Q293
164 256 192T212 224Q204 230 187 230Z" />
<glyph unicode="s" glyph-name="s" d="M121 352T152 352T204 373T226 426T205 478T152 500T100 479T78 426T99 374ZM417 185T448 185T500 206T522 259T501 311T448 333T396 312T374 259T395 207ZM121 0T152 0T204 21T226 74T205 126T152 148T100 127T78 74T99
22ZM142 91L162 57L506 260L106 480L87 446L427 259L142 91Z" />
<glyph unicode="t" glyph-name="t" d="M489 234V464Q451 484 412 485T340 475T273 454T201 443T123 464V234Q162 213 201 213T273 223T339 245T412 255T489 234ZM117 0T123 0T135 4T141 14V483Q141 489 136 493T123 498Q117 498 112 494T106 483V14Q106 8 111 4Z" />
<glyph unicode="u" glyph-name="u" d="M414 275H523Q545 206 545 175Q545 121 525 74L406 69Q396 58 377 44Q370 38 341 26Q316 17 287 15T246 17Q238 5 225 1Q194 0 170 12T146 45V56Q102 61 102 95V110Q82 115 78 121Q69 132 69 148Q69 168 78 181Q56 204 56
229Q56 265 93 286Q97 288 111 296T134 309T157 317T186 322H210Q209 331 207 336T199 349T189 366L180 383Q176 391 173 403Q162 433 162 446Q162 474 178 487T209 497Q220 496 226 484T234 459L244 427L305 342Q309 338 346 310T390 278Q394 275 414 275Z" />
<glyph unicode="v" glyph-name="v" d="M567 364Q569 311 527 253T428 147Q396 121 349 64T293 2V0Q296 0 296 1Q298 0 298 0V2Q222 101 167 147Q72 228 41 305Q28 334 28 364Q28 420 68 460T165 500Q213 500 250 470T298 395Q309 441 346 470T431 500Q487 500
527 460T567 364Z" />
<glyph unicode="w" glyph-name="w" d="M455 15Q463 22 440 103T419 193Q421 201 484 254T545 317Q542 328 460 330T372 336Q365 341 337 420T297 500Q287 500 260 420T226 335Q220 330 139 326T54 311T115 250T183 190Q185 182 164 100T151 12Q157 7 190 29T259
77T302 102T378 55T455 15Z" />
<glyph unicode="x" glyph-name="x" d="M304 94L466 0V500H134V0L304 94Z" />
<glyph unicode="y" glyph-name="y" d="M38 443H562Q578 443 589 432T600 405V95Q600 79 589 68T562 57H38Q22 57 11 68T0 95V405Q0 421 11 432T38 443ZM386 268H300V225H386V268ZM233 121H273V400H31V121H67V124V129Q67 132 69 138Q69 158 80 175T107 192H131Q130
192 130 201Q112 208 101 224T89 261Q89 288 107 307T150 326T193 307T211 261Q211 240 200 224T170 200L169 192H196Q213 192 223 171T233 128V127V124V121ZM300 116H557V169H300V116ZM429 225H557V268H429V225ZM300 321H557V400H300V321Z" />
<glyph unicode="z" glyph-name="z" d="M319 420L150 229V160H450V240H279L450 431V500H156V420H319ZM450 64H151L150 0H255L385 -124V0H450V64Z" />
<glyph unicode="{" glyph-name="braceleft" d="M300 499Q403 499 476 426T550 249T477 73T300 -1Q196 -1 123 72T50 249T123 425T300 499ZM300 83Q368 83 417 131T466 249T417 366T300 415Q231 415 182 367T133 249T182 132T300 83ZM217 284T217 249T241 190T300
166T358 190T382 249T358 307T300 332T242 308Z" />
<glyph unicode="}" glyph-name="braceright" d="M301 478L243 349L103 365L186 250L102 136L243 151L299 22L357 151L497 135L414 250L498 363L357 348L301 478ZM279 487T279 478T285 463T301 456T316 462T322 478T316 493T301 500T286 494ZM476 372T476 363T482
348T498 341T513 347T520 363T514 378T498 385T483 379ZM472 145T472 136T478 121T494 114T509 120T516 136T510 151T494 158T479 152ZM276 31T276 22T282 7T298 0T313 6T320 22T314 37T298 44T283 38ZM80 145T80 136T86 121T102 114T117 120T124 136T118 151T102
158T87 152ZM80 372T80 363T86 348T102 341T117 347T124 363T118 378T102 385T87 379Z" />
</font>
</defs>
</svg>
